<svg xmlns="http://www.w3.org/2000/svg" width="54.585" height="54.585" viewBox="0 0 54.585 54.585">
  <path id="Qua_trái" data-name="Qua trái" d="M27.293,0l-.764.01A27.323,27.323,0,1,0,27.293,0Zm-3.93,38.81a2.034,2.034,0,0,1-1.447-3.493l8.052-8.025-8.052-8.025a2.037,2.037,0,0,1-.027-2.894,2.052,2.052,0,0,1,1.457-.613,1.984,1.984,0,0,1,1.437.613l9.526,9.472a2.046,2.046,0,0,1,0,2.894l-9.526,9.469A1.917,1.917,0,0,1,23.362,38.81Z" transform="translate(54.585 54.585) rotate(180)" fill="#fff"/>
</svg>
