<svg xmlns="http://www.w3.org/2000/svg" width="77.619" height="62.015" viewBox="0 0 77.619 62.015">
  <g id="logo" transform="translate(2262.476 -3098.49)">
    <g id="Group_155" data-name="Group 155" transform="translate(-2251.721 3124.667)">
      <path id="Path_333" data-name="Path 333" d="M-2022.089,3694.508c-.675-.087-1.356-.144-2.025-.265a8.7,8.7,0,0,1-7.4-7.922,19.034,19.034,0,0,1,4.306-14.964,14.614,14.614,0,0,1,10.126-5.3,10.734,10.734,0,0,1,5.738.961.438.438,0,0,1,.3.567c-.392,2.134-.76,4.273-1.136,6.41-.016.09-.037.179-.064.3-.1-.055-.182-.094-.259-.139a6.719,6.719,0,0,0-6.246-.534A6.528,6.528,0,0,0-2022,3676.7a11.484,11.484,0,0,0-1.432,6.291c.219,3.209,2.443,4.757,5.459,4.567a7.389,7.389,0,0,0,3.684-1.24,1.412,1.412,0,0,1,.145-.068c-.131.746-.255,1.452-.379,2.158-.259,1.473-.524,2.945-.772,4.42a.624.624,0,0,1-.4.531,12.859,12.859,0,0,1-4.542,1.107,1.7,1.7,0,0,0-.226.043Z" transform="translate(2031.671 -3665.727)" fill="#fff"/>
      <path id="Path_334" data-name="Path 334" d="M-1132.148,3675.235a7.1,7.1,0,0,1,4.068-1.631,10.072,10.072,0,0,1,5.361.681,5.681,5.681,0,0,1,3.5,4.985,17.391,17.391,0,0,1-.444,4.913q-1.484,8.4-2.959,16.806c-.048.277-.142.362-.428.36q-3.725-.018-7.449,0c-.243,0-.306-.057-.263-.3q1.574-8.87,3.137-17.743a2.619,2.619,0,0,0-.51-2.426,2.829,2.829,0,0,0-3.536-.326,4.473,4.473,0,0,0-1.974,3.159q-1.538,8.653-3.049,17.31c-.043.244-.127.331-.387.33q-3.666-.015-7.333,0c-.279,0-.314-.082-.269-.333q2.4-13.587,4.793-27.177c.043-.248.134-.326.389-.325q3.678.015,7.356,0c.233,0,.3.06.25.292C-1131.988,3674.269-1132.06,3674.736-1132.148,3675.235Z" transform="translate(1186.029 -3672.889)" fill="#fff"/>
      <path id="Path_335" data-name="Path 335" d="M-1617.077,3669.03c.111-.646.206-1.215.307-1.783.3-1.725.608-3.449.925-5.172a.458.458,0,0,1,.239-.29,21.151,21.151,0,0,1,6.462-1.468,17.934,17.934,0,0,1,6.005.425,7.214,7.214,0,0,1,4.064,2.5,5.181,5.181,0,0,1,1.057,3.88c-.323,2.456-.766,4.9-1.19,7.339-.8,4.635-1.632,9.265-2.442,13.9-.044.251-.127.343-.4.342q-3.806-.017-7.612,0c-.273,0-.312-.088-.258-.324.071-.315.115-.636.182-1.017-.129.061-.208.095-.284.135a10.012,10.012,0,0,1-4.559,1.332,6.611,6.611,0,0,1-6.934-5.375,10.38,10.38,0,0,1,2.354-9.319,11.134,11.134,0,0,1,6.839-3.969,9.9,9.9,0,0,1,5.267.465c.2.077.281.043.3-.174.054-.585.119-1.17.181-1.755a1.169,1.169,0,0,0-.594-1.13,3.971,3.971,0,0,0-2.093-.627,12.322,12.322,0,0,0-5.69.771,15.656,15.656,0,0,0-1.818,1.067A3.65,3.65,0,0,0-1617.077,3669.03Zm5.927,13.462c.231-.025.463-.039.692-.076a2.394,2.394,0,0,0,1.9-1.916,26.241,26.241,0,0,1,.482-2.746,1.333,1.333,0,0,0-.6-1.466,2.261,2.261,0,0,0-1.7-.408,3.965,3.965,0,0,0-3.359,3.615A2.554,2.554,0,0,0-1611.15,3682.492Z" transform="translate(1640.892 -3660.244)" fill="#fff"/>
    </g>
    <g id="I_copy" data-name="I copy" transform="translate(-2262.476 3098.49)">
      <g id="Group_3_copy_2" data-name="Group 3 copy 2" transform="translate(0 0)">
        <path id="Shape_2_copy_3" data-name="Shape 2 copy 3" d="M4.605,2.469C3.794,3.824-2.09,21.573.785,32.841c1.728,6.773,12.357,10.21,12.357,10.21S8.4,39.9,7.495,32.019C6.288,21.5,11.775,7.4,12.59,4.2a3.818,3.818,0,0,0-.131-2.653A4.107,4.107,0,0,0,9.622.131,4.241,4.241,0,0,0,4.605,2.469Z" transform="translate(0 18.963)" fill="#fff" fill-rule="evenodd"/>
        <path id="_4" data-name="4" d="M1.734.184,1.629,1.34s-.578-.06-.709.368.341.735.341.735a7.458,7.458,0,0,0-.184,1.235.456.456,0,0,0,.158.315C1.234,4.008,0,8.9,0,8.9l.84.578.394-.236.394.105L1.707,4.1a.452.452,0,0,0,.263-.289A6.522,6.522,0,0,0,2.075,2.6s.487-.081.525-.473-.525-.709-.525-.709L2.311,0Z" transform="translate(0.481 2.966)" fill="#fff" fill-rule="evenodd"/>
        <path id="_3" data-name="3" d="M1.8,1.8a6.142,6.142,0,1,1,0,8.686A6.142,6.142,0,0,1,1.8,1.8Z" transform="translate(6.116 5.702)" fill="#fff"/>
        <path id="_2" data-name="2" d="M11.242,6.987l.841.867,1.024-4.465A13.811,13.811,0,0,0,7.145.315,10.859,10.859,0,0,0,.788.631L0,5.621,4.57,4.439,6.2,4.571l1.786.841Z" transform="translate(6.181 5.409)" fill="#fff" fill-rule="evenodd"/>
        <path id="_1" data-name="1" d="M4.392,6.749l.158-1.077a11.718,11.718,0,0,1,6.724-.683,13.792,13.792,0,0,1,6.435,3.677l-.341,1.077,5.148-1.077s.343-.079.368-.236-.147-.318-.263-.42S13.454.6,13.454.6a3.739,3.739,0,0,0-.919-.578,3.563,3.563,0,0,0-1.261.158S.444,3,.373,3.019.044,3.1,0,3.229s.157.325.263.42S4.392,6.749,4.392,6.749Z" transform="translate(2.078)" fill="#fff" fill-rule="evenodd"/>
      </g>
    </g>
  </g>
</svg>
