<svg xmlns="http://www.w3.org/2000/svg" width="25.143" height="16" viewBox="0 0 25.143 16">
  <path id="Icon_material-group" data-name="Icon material-group" d="M18.31,12.69a3.429,3.429,0,1,0-3.429-3.429A3.414,3.414,0,0,0,18.31,12.69Zm-9.143,0A3.429,3.429,0,1,0,5.738,9.262,3.414,3.414,0,0,0,9.167,12.69Zm0,2.286c-2.663,0-8,1.337-8,4v2.857h16V18.976C17.167,16.313,11.83,14.976,9.167,14.976Zm9.143,0c-.331,0-.709.023-1.109.057a4.823,4.823,0,0,1,2.251,3.943v2.857H26.31V18.976c0-2.663-5.337-4-8-4Z" transform="translate(-1.167 -5.833)" fill="#c2d7e3"/>
</svg>
